<svg width="25" height="24" viewBox="0 0 25 24" fill="none" xmlns="http://www.w3.org/2000/svg">
<path d="M20.5524 3H4.44765C4.20178 3.0166 3.97027 3.12177 3.79602 3.29602C3.62177 3.47027 3.5166 3.70178 3.5 3.94765V20.0524C3.50139 20.3033 3.60168 20.5435 3.7791 20.7209C3.95651 20.8983 4.19674 20.9986 4.44765 21H13.0686V13.9895H10.7942V11.3372H13.1628V9.34765C13.1118 8.87052 13.1666 8.388 13.3233 7.93447C13.4801 7.48095 13.7349 7.06757 14.0697 6.72379C14.4045 6.38002 14.811 6.1143 15.2602 5.94558C15.7094 5.77685 16.1903 5.70927 16.6686 5.74765C17.6162 5.74765 18.4686 5.84188 18.7524 5.84188V8.30577H17.3314C16.1942 8.30577 16.0047 8.87435 16.0047 9.63247V11.3372H18.6571L18.278 14.0848H15.9105V21H20.5524C20.8033 20.9986 21.0435 20.8983 21.2209 20.7209C21.3983 20.5435 21.4986 20.3033 21.5 20.0524V3.94765C21.4834 3.70178 21.3782 3.47027 21.204 3.29602C21.0297 3.12177 20.7982 3.0166 20.5524 3V3Z" fill="#6E7491"/>
</svg>
