<svg width="25" height="24" viewBox="0 0 25 24" fill="none" xmlns="http://www.w3.org/2000/svg">
<path fill-rule="evenodd" clip-rule="evenodd" d="M1.75 7.45455C1.75 4.04033 4.54033 1.25 7.95455 1.25H17.0455C20.4597 1.25 23.25 4.04033 23.25 7.45455V16.5455C23.25 19.9597 20.4597 22.75 17.0455 22.75H7.95455C4.54033 22.75 1.75 19.9597 1.75 16.5455V7.45455ZM7.95455 2.75C5.36876 2.75 3.25 4.86876 3.25 7.45455V16.5455C3.25 19.1312 5.36876 21.25 7.95455 21.25H17.0455C19.6312 21.25 21.75 19.1312 21.75 16.5455V7.45455C21.75 4.86876 19.6312 2.75 17.0455 2.75H7.95455ZM12.5 15.5C14.433 15.5 16 13.933 16 12C16 10.067 14.433 8.5 12.5 8.5C10.567 8.5 9 10.067 9 12C9 13.933 10.567 15.5 12.5 15.5ZM12.5 17C15.2614 17 17.5 14.7614 17.5 12C17.5 9.23858 15.2614 7 12.5 7C9.73858 7 7.5 9.23858 7.5 12C7.5 14.7614 9.73858 17 12.5 17ZM17.5 7C18.0523 7 18.5 6.55228 18.5 6C18.5 5.44771 18.0523 5 17.5 5C16.9477 5 16.5 5.44771 16.5 6C16.5 6.55228 16.9477 7 17.5 7Z" fill="#6E7491"/>
</svg>
