<svg width="25" height="24" viewBox="0 0 25 24" fill="none" xmlns="http://www.w3.org/2000/svg">
<path d="M23.5 6.01262C23.2129 6.4417 22.8882 6.84184 22.5259 7.21304C22.1636 7.58423 21.7705 7.92307 21.3467 8.22956C21.3535 8.32491 21.3586 8.41856 21.3621 8.51051C21.3655 8.60246 21.3672 8.69611 21.3672 8.79146C21.3672 9.64963 21.2749 10.4976 21.0903 11.3353C20.9058 12.1731 20.6392 12.9836 20.2905 13.7668C19.7847 14.9042 19.1523 15.9208 18.3936 16.8164C17.6348 17.712 16.7751 18.4697 15.8147 19.0895C14.8543 19.7093 13.8066 20.1827 12.6719 20.5096C11.5371 20.8365 10.3477 21 9.10351 21C7.92773 21 6.781 20.8382 5.66333 20.5147C4.54565 20.1912 3.49121 19.7093 2.5 19.0691C2.83496 19.11 3.17676 19.1304 3.52539 19.1304C4.50293 19.1304 5.44799 18.9738 6.36059 18.6605C7.27319 18.3471 8.1123 17.8908 8.87792 17.2915C8.41992 17.2846 7.979 17.208 7.55517 17.0616C7.13134 16.9152 6.7434 16.7108 6.39135 16.4486C6.0393 16.1864 5.73168 15.8748 5.4685 15.5138C5.20531 15.1528 5.00194 14.7544 4.85839 14.3185C4.99511 14.3389 5.13012 14.356 5.26342 14.3696C5.39672 14.3832 5.53173 14.39 5.66845 14.39C6.05126 14.39 6.42723 14.3389 6.79638 14.2368C6.29052 14.1346 5.82739 13.9541 5.40698 13.6953C4.98657 13.4365 4.62255 13.1215 4.31493 12.7503C4.00732 12.3791 3.76806 11.9602 3.59716 11.4937C3.42626 11.0271 3.34081 10.5385 3.34081 10.0276V9.97656C3.94238 10.3171 4.59521 10.4976 5.29931 10.518C4.99853 10.3137 4.73022 10.0804 4.49438 9.81821C4.25854 9.55599 4.05859 9.27163 3.89453 8.96514C3.73046 8.65865 3.604 8.33514 3.51513 7.99459C3.42626 7.65405 3.38183 7.30329 3.38183 6.94231C3.38183 6.5609 3.42968 6.188 3.52538 5.82362C3.62109 5.45924 3.76806 5.11358 3.9663 4.78666C4.51318 5.46094 5.12158 6.06541 5.7915 6.60006C6.46142 7.13472 7.17407 7.59275 7.92944 7.97416C8.68481 8.35557 9.47607 8.65695 10.3032 8.87831C11.1304 9.09966 11.978 9.23077 12.8462 9.27164C12.8052 9.11498 12.7761 8.95323 12.759 8.78636C12.7419 8.61949 12.7334 8.45433 12.7334 8.29087C12.7334 7.69832 12.8462 7.14153 13.0718 6.62049C13.2974 6.09946 13.605 5.64483 13.9946 5.25661C14.3843 4.86839 14.8406 4.5619 15.3635 4.33714C15.8865 4.11238 16.4453 4 17.04 4C17.6416 4 18.2141 4.11749 18.7576 4.35246C19.301 4.58744 19.7778 4.92288 20.188 5.35877C20.6733 5.26342 21.1433 5.1289 21.5979 4.95523C22.0525 4.78155 22.4917 4.56871 22.9155 4.31671C22.7583 4.8139 22.5173 5.26683 22.1926 5.67548C21.8679 6.08413 21.48 6.42127 21.0288 6.6869C21.8901 6.58474 22.7139 6.35998 23.5 6.01262L23.5 6.01262Z" fill="#6E7491"/>
</svg>
